<svg width="169" height="169" viewBox="0 0 169 169" fill="none" xmlns="http://www.w3.org/2000/svg">
<path d="M115.176 39.6055V19.3853H147.564V55.3782" fill="#976947"/>
<path d="M140.561 51.7835V154.411H28.4431V51.7835L84.5019 22.1138L140.561 51.7835Z" fill="#C18E59"/>
<path d="M140.376 143.629H28.4431V154.409H140.376V143.629Z" fill="#976947"/>
<path d="M140.376 84.9442H28.4431V95.7237H140.376V84.9442Z" fill="#976947"/>
<path d="M140.376 55.3486H28.4431V66.1281H140.376V55.3486Z" fill="#976947"/>
<path d="M140.376 114.287H28.4431V125.066H140.376V114.287Z" fill="#976947"/>
<path d="M140.559 54.4396L145.827 67.3596L140.559 74.0296L84.5001 43.8356L28.4414 74.0296L23.1736 67.3592L28.4414 54.4396L84.5001 24.2456L140.559 54.4396Z" fill="#976947"/>
<path d="M160.821 75.2885L84.5 34.1798L8.17924 75.2885L0 60.1033L84.5 14.5895L169 60.1033L160.821 75.2885Z" fill="#C18E59"/>
<path d="M28.4411 154.411C36.5438 154.411 43.1124 147.842 43.1124 139.739C43.1124 131.637 36.5438 125.068 28.4411 125.068C20.3383 125.068 13.7698 131.637 13.7698 139.739C13.7698 147.842 20.3383 154.411 28.4411 154.411Z" fill="#EFBE9A"/>
<path d="M28.4411 125.068C36.5438 125.068 43.1124 118.499 43.1124 110.397C43.1124 102.294 36.5438 95.7254 28.4411 95.7254C20.3383 95.7254 13.7698 102.294 13.7698 110.397C13.7698 118.499 20.3383 125.068 28.4411 125.068Z" fill="#EFBE9A"/>
<path d="M28.4411 95.724C36.5438 95.724 43.1124 89.1555 43.1124 81.0528C43.1124 72.9501 36.5438 66.3815 28.4411 66.3815C20.3383 66.3815 13.7698 72.9501 13.7698 81.0528C13.7698 89.1555 20.3383 95.724 28.4411 95.724Z" fill="#EFBE9A"/>
<path d="M140.558 154.411C148.661 154.411 155.23 147.842 155.23 139.739C155.23 131.637 148.661 125.068 140.558 125.068C132.456 125.068 125.887 131.637 125.887 139.739C125.887 147.842 132.456 154.411 140.558 154.411Z" fill="#EFBE9A"/>
<path d="M140.558 125.068C148.661 125.068 155.23 118.499 155.23 110.397C155.23 102.294 148.661 95.7254 140.558 95.7254C132.456 95.7254 125.887 102.294 125.887 110.397C125.887 118.499 132.456 125.068 140.558 125.068Z" fill="#EFBE9A"/>
<path d="M140.558 95.724C148.661 95.724 155.23 89.1555 155.23 81.0528C155.23 72.9501 148.661 66.3815 140.558 66.3815C132.456 66.3815 125.887 72.9501 125.887 81.0528C125.887 89.1555 132.456 95.724 140.558 95.724Z" fill="#EFBE9A"/>
<path d="M140.559 148.374C135.798 148.374 131.925 144.5 131.925 139.739C131.925 134.978 135.798 131.104 140.559 131.104C141.988 131.104 143.147 132.263 143.147 133.691C143.147 135.12 141.988 136.279 140.559 136.279C138.651 136.279 137.099 137.831 137.099 139.739C137.099 141.647 138.651 143.199 140.559 143.199C142.467 143.199 144.02 141.647 144.02 139.739C144.02 138.31 145.178 137.152 146.607 137.152C148.036 137.152 149.194 138.31 149.194 139.739C149.194 144.5 145.321 148.374 140.559 148.374Z" fill="#DB9B7C"/>
<path d="M140.559 119.03C135.798 119.03 131.925 115.156 131.925 110.395C131.925 105.634 135.798 101.76 140.559 101.76C141.988 101.76 143.147 102.919 143.147 104.348C143.147 105.776 141.988 106.935 140.559 106.935C138.651 106.935 137.099 108.487 137.099 110.395C137.099 112.303 138.651 113.856 140.559 113.856C142.467 113.856 144.02 112.303 144.02 110.395C144.02 108.966 145.178 107.808 146.607 107.808C148.036 107.808 149.194 108.966 149.194 110.395C149.194 115.156 145.321 119.03 140.559 119.03Z" fill="#DB9B7C"/>
<path d="M140.559 89.6873C135.798 89.6873 131.925 85.8138 131.925 81.0524C131.925 76.2913 135.798 72.4178 140.559 72.4178C141.988 72.4178 143.147 73.5761 143.147 75.0049C143.147 76.4338 141.988 77.5921 140.559 77.5921C138.651 77.5921 137.099 79.1444 137.099 81.0524C137.099 82.9607 138.651 84.513 140.559 84.513C142.467 84.513 144.02 82.9607 144.02 81.0524C144.02 79.6236 145.178 78.4652 146.607 78.4652C148.036 78.4652 149.194 79.6236 149.194 81.0524C149.194 85.8138 145.321 89.6873 140.559 89.6873Z" fill="#DB9B7C"/>
<path d="M28.44 148.374C23.6789 148.374 19.8054 144.5 19.8054 139.739C19.8054 134.978 23.6789 131.104 28.44 131.104C29.8688 131.104 31.0272 132.263 31.0272 133.691C31.0272 135.12 29.8688 136.279 28.44 136.279C26.532 136.279 24.9797 137.831 24.9797 139.739C24.9797 141.647 26.532 143.199 28.44 143.199C30.3479 143.199 31.9002 141.647 31.9002 139.739C31.9002 138.31 33.0586 137.152 34.4874 137.152C35.9162 137.152 37.0746 138.31 37.0746 139.739C37.0746 144.5 33.2011 148.374 28.44 148.374Z" fill="#DB9B7C"/>
<path d="M28.44 119.03C23.6789 119.03 19.8054 115.156 19.8054 110.395C19.8054 105.634 23.6789 101.76 28.44 101.76C29.8688 101.76 31.0272 102.919 31.0272 104.348C31.0272 105.776 29.8688 106.935 28.44 106.935C26.532 106.935 24.9797 108.487 24.9797 110.395C24.9797 112.303 26.532 113.856 28.44 113.856C30.3479 113.856 31.9002 112.303 31.9002 110.395C31.9002 108.966 33.0586 107.808 34.4874 107.808C35.9162 107.808 37.0746 108.966 37.0746 110.395C37.0746 115.156 33.2011 119.03 28.44 119.03Z" fill="#DB9B7C"/>
<path d="M28.44 89.6873C23.6789 89.6873 19.8054 85.8138 19.8054 81.0524C19.8054 76.2913 23.6789 72.4178 28.44 72.4178C29.8688 72.4178 31.0272 73.5761 31.0272 75.0049C31.0272 76.4338 29.8688 77.5921 28.44 77.5921C26.532 77.5921 24.9797 79.1444 24.9797 81.0524C24.9797 82.9607 26.532 84.513 28.44 84.513C30.3479 84.513 31.9002 82.9607 31.9002 81.0524C31.9002 79.6236 33.0586 78.4652 34.4874 78.4652C35.9162 78.4652 37.0746 79.6236 37.0746 81.0524C37.0746 85.8138 33.2011 89.6873 28.44 89.6873Z" fill="#DB9B7C"/>
<path d="M109.659 79.0757H59.3398C57.1721 79.0757 55.4146 80.8329 55.4146 83.001V126.974C55.4146 129.142 57.1718 130.9 59.3398 130.9H109.659C111.826 130.9 113.584 129.142 113.584 126.974V83.001C113.584 80.8333 111.827 79.0757 109.659 79.0757Z" fill="#976947"/>
<path d="M104.96 87.7004H64.0378V122.276H104.96V87.7004Z" fill="#BDE9FF"/>
<path d="M104.963 124.864H64.0408C62.612 124.864 61.4536 123.705 61.4536 122.276V87.7006C61.4536 86.2718 62.612 85.1134 64.0408 85.1134H104.963C106.391 85.1134 107.55 86.2718 107.55 87.7006V122.276C107.55 123.705 106.391 124.864 104.963 124.864ZM66.6279 119.689H102.375V90.2878H66.6279V119.689Z" fill="#C18E59"/>
<path d="M84.4995 124.864C83.0707 124.864 81.9124 123.705 81.9124 122.276V87.7006C81.9124 86.2718 83.0707 85.1134 84.4995 85.1134C85.9283 85.1134 87.0867 86.2718 87.0867 87.7006V122.276C87.0867 123.705 85.9283 124.864 84.4995 124.864Z" fill="#C18E59"/>
<path d="M104.963 107.576H64.0408C62.612 107.576 61.4536 106.417 61.4536 104.988C61.4536 103.56 62.612 102.401 64.0408 102.401H104.963C106.391 102.401 107.55 103.56 107.55 104.988C107.55 106.417 106.391 107.576 104.963 107.576Z" fill="#C18E59"/>
</svg>
