<svg width="177" height="177" viewBox="0 0 177 177" fill="none" xmlns="http://www.w3.org/2000/svg">
	<g clip-path="url(#clip0)">
		<path d="M38.6929 79.186L124.066 52.623C137.715 48.3763 153.161 59.016 158.566 76.3871C163.971 93.7582 157.288 111.283 143.639 115.53L58.2656 142.093" fill="#C18E59"/>
		<path d="M74.8289 111.047C74.5552 108.376 74.0385 105.664 73.1941 102.95C71.8486 98.6255 69.8788 94.7191 67.4722 91.3542L105.096 70.8464L58.9801 82.9281C52.7497 78.6545 45.4991 77.0686 38.6943 79.1858C25.0454 83.4325 18.3625 100.957 23.7673 118.328C29.1722 135.7 44.6181 146.339 58.2671 142.093C67.5708 139.198 73.6279 130.13 74.8371 119.151L95.3616 110.838L74.8289 111.047Z" fill="#EFBE9A"/>
		<path d="M64.2076 105.746C60.3469 93.3374 50.1767 85.4695 41.4906 88.1721C32.8045 90.8747 28.8935 103.124 32.7542 115.532C36.6149 127.94 46.785 135.808 55.4711 133.106C64.1572 130.403 68.0683 118.154 64.2076 105.746Z" fill="#DB9B7C"/>
		<path d="M55.2196 108.542C52.9034 101.098 48.0076 96.001 44.2854 97.1591C40.5633 98.3172 39.4234 105.292 41.7396 112.736C44.0558 120.18 48.9516 125.277 52.6737 124.119C56.3959 122.961 57.5358 115.986 55.2196 108.542Z" fill="#EFBE9A"/>
		<path d="M87.0222 44.4355L96.0089 41.6394C100.972 40.0952 106.248 42.8671 107.792 47.83L109.19 52.3233L100.203 55.1194C95.2402 56.6635 89.9644 53.8917 88.4203 48.9288L87.0222 44.4355Z" fill="#568E53"/>
		<path d="M127.413 71.295C121.209 73.2252 114.614 69.7603 112.684 63.5568L107.791 47.83L109.888 54.5701C111.818 60.7736 118.413 64.2385 124.617 62.3083" fill="#976947"/>
		<path d="M103.187 122.461L99.0175 120.283L99.189 119.957C103.369 112.005 110.385 106.163 118.951 103.498C126.318 101.206 132.352 96.182 135.944 89.3492L136.112 89.0285L140.281 91.2061L140.11 91.5326C135.932 99.4837 128.916 105.326 120.35 107.991C112.983 110.283 106.949 115.307 103.357 122.14L103.187 122.461Z" fill="#976947"/>
		<path d="M129.122 85.5484L125.99 86.5229C121.977 87.7714 117.817 88.2357 113.627 87.9055L112.725 87.8335C105.532 87.2645 98.3245 89.5069 92.7263 94.0558L87.457 98.3352L84.4912 94.6809L89.7619 90.4024C96.2912 85.1029 104.707 82.4843 113.093 83.1431L113.995 83.2151C117.59 83.4981 121.155 83.0989 124.592 82.0295L127.724 81.055C130.625 80.1526 133.342 78.7969 135.808 77.0274L143.864 71.2325L146.611 75.051L138.555 80.8448C135.678 82.9142 132.505 84.4958 129.122 85.5484Z" fill="#976947"/>
	</g>
	<defs>
	<clipPath id="clip0">
		<rect width="141.174" height="141.174" fill="white" transform="translate(0 41.9417) rotate(-17.2829)"/>
	</clipPath>
	</defs>
</svg>
